Grate 3D funny Adult Animated Film ENJOY Raster :D

Duration: 85 min
Format: mkv
Audio1: english 5.1 AC3 @448 kbps (dubbed, source DVD)
Audio2: french 5.1 DTS @1510 kbps
Audio3: spanish 5.1 DTS @1510 kbps
Size: left/right:...still encoding...; side-by-side:7,64GB
Resolution: 1920 x 1080
Genre: 3D, Animation, Action, Crime
Movie Info: http://www.imdb.com/title/tt1235827/


General
Complete name : Boogie.El.Aceitoso.3D.2009.ML.ENG.Dubbed.1080p.3DB D.x264.half.SBS.z-man.mkv
Format : Matroska
File size : 7.64 GiB
Duration : 1h 25mn
Overall bit rate : 12.8 Mbps
Encoded date : UTC 2011-05-26 20:22:33
Writing application : mkvmerge v4.4.0 ('Die Wiederkehr') gebaut am Oct 31 2010 21:52:48
Writing library : libebml v1.0.0 + libmatroska v1.0.0

Video
ID : 1
Format : AVC
Format/Info : Advanced Video Codec
Format profile : High@L4.1
Format settings, CABAC : Yes
Format settings, ReFrames : 4 frames
Codec ID : V_MPEG4/ISO/AVC
Duration : 1h 25mn
Bit rate : 9 054 Kbps
Width : 1 920 pixels
Height : 1 080 pixels
Display aspect ratio : 16:9
Frame rate : 23.976 fps
Color space : YUV
Chroma subsampling : 4:2:0
Bit depth : 8 bits
Scan type : Progressive
Bits/(Pixel*Frame) : 0.182
Stream size : 5.42 GiB (71%)
Title : Boogie.El.Aceitoso.3D.2009.ML.ENG.Dubbed.1080p.3DB D.x264.half.SBS.z-man
Writing library : x264 core 115 r1995 c1e60b9
Encoding settings : cabac=1 / ref=4 / deblock=1:-1:-1 / analyse=0x3:0x113 / me=umh / subme=7 / psy=1 / psy_rd=1.00:0.15 / mixed_ref=1 / me_range=16 / chroma_me=1 / trellis=1 / 8x8dct=1 / cqm=0 / deadzone=21,11 / fast_pskip=1 / chroma_qp_offset=-3 / threads=18 / sliced_threads=0 / nr=0 / decimate=1 / interlaced=0 / bluray_compat=0 / constrained_intra=0 / bframes=3 / b_pyramid=2 / b_adapt=1 / b_bias=0 / direct=3 / weightb=1 / open_gop=0 / weightp=2 / keyint=250 / keyint_min=23 / scenecut=40 / intra_refresh=0 / rc_lookahead=40 / rc=crf / mbtree=1 / crf=18.0 / qcomp=0.60 / qpmin=10 / qpmax=69 / qpstep=4 / ip_ratio=1.40 / aq=1:1.00

Audio #1
ID : 2
Format : AC-3
Format/Info : Audio Coding 3
Mode extension : CM (complete main)
Codec ID : A_AC3
Duration : 1h 25mn
Bit rate mode : Constant
Bit rate : 448 Kbps
Channel(s) : 6 channels
Channel positions : Front: L C R, Side: L R, LFE
Sampling rate : 48.0 KHz
Bit depth : 16 bits
Compression mode : Lossy
Stream size : 274 MiB (4%)
Title : Dubbed
Language : English

Audio #2
ID : 3
Format : DTS
Format/Info : Digital Theater Systems
Codec ID : A_DTS
Duration : 1h 25mn
Bit rate mode : Constant
Bit rate : 1 510 Kbps
Channel(s) : 6 channels
Channel positions : Front: L C R, Side: L R, LFE
Sampling rate : 48.0 KHz
Bit depth : 24 bits
Compression mode : Lossy
Stream size : 925 MiB (12%)
Language : French

Audio #3
ID : 4
Format : DTS
Format/Info : Digital Theater Systems
Codec ID : A_DTS
Duration : 1h 25mn
Bit rate mode : Constant
Bit rate : 1 510 Kbps
Channel(s) : 6 channels
Channel positions : Front: L C R, Side: L R, LFE
Sampling rate : 48.0 KHz
Bit depth : 24 bits
Compression mode : Lossy
Stream size : 925 MiB (12%)
Language : Spanish 